<?xml version="1.0" standalone="yes"?>

<svg version="1.1" viewBox="0.0 0.0 790.7427821522309 207.26246719160105" fill="none" stroke="none" stroke-linecap="square" stroke-miterlimit="10" xmlns="http://www.w3.org/2000/svg" xmlns:xlink="http://www.w3.org/1999/xlink"><clipPath id="p.0"><path d="m0 0l790.7428 0l0 207.26247l-790.7428 0l0 -207.26247z" clip-rule="nonzero"></path></clipPath><g clip-path="url(#p.0)"><path fill="#000000" fill-opacity="0.0" d="m0 0l790.7428 0l0 207.26247l-790.7428 0z" fill-rule="nonzero"></path><path fill="#cfe2f3" d="m46.884514 96.0105l0 0c0 -25.979126 21.060242 -47.039368 47.039368 -47.039368l0 0c12.475624 0 24.44027 4.9559174 33.261864 13.777512c8.821594 8.821594 13.777512 20.78624 13.777512 33.261856l0 0c0 25.979126 -21.060242 47.039368 -47.039375 47.039368l0 0c-25.979126 0 -47.039368 -21.060242 -47.039368 -47.039368z" fill-rule="nonzero"></path><path stroke="#000000" stroke-width="1.0" stroke-linejoin="round" stroke-linecap="butt" d="m46.884514 96.0105l0 0c0 -25.979126 21.060242 -47.039368 47.039368 -47.039368l0 0c12.475624 0 24.44027 4.9559174 33.261864 13.777512c8.821594 8.821594 13.777512 20.78624 13.777512 33.261856l0 0c0 25.979126 -21.060242 47.039368 -47.039375 47.039368l0 0c-25.979126 0 -47.039368 -21.060242 -47.039368 -47.039368z" fill-rule="nonzero"></path><path fill="#cfe2f3" d="m195.84514 69.6168l71.023636 0l0 52.7874l-71.023636 0z" fill-rule="nonzero"></path><path stroke="#000000" stroke-width="1.0" stroke-linejoin="round" stroke-linecap="butt" d="m195.84514 69.6168l71.023636 0l0 52.7874l-71.023636 0z" fill-rule="nonzero"></path><path fill="#000000" d="m210.30692 102.9305l0 -9.859375l1.5 0l0 1.40625q1.09375 -1.625 3.140625 -1.625q0.890625 0 1.640625 0.328125q0.75 0.3125 1.109375 0.84375q0.375 0.515625 0.53125 1.21875q0.09375 0.46875 0.09375 1.625l0 6.0625l-1.671875 0l0 -6.0q0 -1.015625 -0.203125 -1.515625q-0.1875 -0.515625 -0.6875 -0.8125q-0.5 -0.296875 -1.171875 -0.296875q-1.0625 0 -1.84375 0.671875q-0.765625 0.671875 -0.765625 2.578125l0 5.375l-1.671875 0zm10.078842 0.8125l1.609375 0.25q0.109375 0.75 0.578125 1.09375q0.609375 0.453125 1.6875 0.453125q1.171875 0 1.796875 -0.46875q0.625 -0.453125 0.859375 -1.28125q0.125 -0.515625 0.109375 -2.15625q-1.09375 1.296875 -2.71875 1.296875q-2.03125 0 -3.15625 -1.46875q-1.109375 -1.46875 -1.109375 -3.515625q0 -1.40625 0.515625 -2.59375q0.515625 -1.203125 1.484375 -1.84375q0.96875 -0.65625 2.265625 -0.65625q1.75 0 2.875 1.40625l0 -1.1875l1.5468597 0l0 8.515625q0 2.3125 -0.46875 3.265625q-0.46873474 0.96875 -1.4843597 1.515625q-1.015625 0.5625 -2.5 0.5625q-1.765625 0 -2.859375 -0.796875q-1.078125 -0.796875 -1.03125 -2.390625zm1.375 -5.921875q0 1.953125 0.765625 2.84375q0.78125 0.890625 1.9375 0.890625q1.140625 0 1.921875 -0.890625q0.78125 -0.890625 0.78125 -2.78125q0 -1.8125 -0.8125 -2.71875q-0.796875 -0.921875 -1.921875 -0.921875q-1.109375 0 -1.890625 0.90625q-0.78125 0.890625 -0.78125 2.671875zm9.313202 -6.578125l0 -1.90625l1.671875 0l0 1.90625l-1.671875 0zm0 11.6875l0 -9.859375l1.671875 0l0 9.859375l-1.671875 0zm4.129196 0l0 -9.859375l1.5 0l0 1.40625q1.09375 -1.625 3.140625 -1.625q0.890625 0 1.640625 0.328125q0.75 0.3125 1.109375 0.84375q0.375 0.515625 0.53125 1.21875q0.09375 0.46875 0.09375 1.625l0 6.0625l-1.671875 0l0 -6.0q0 -1.015625 -0.203125 -1.515625q-0.1875 -0.515625 -0.6875 -0.8125q-0.5 -0.296875 -1.171875 -0.296875q-1.0625 0 -1.84375 0.671875q-0.765625 0.671875 -0.765625 2.578125l0 5.375l-1.671875 0zm9.266342 0l3.59375 -5.125l-3.328125 -4.734375l2.09375 0l1.515625 2.3125q0.421875 0.65625 0.671875 1.109375q0.421875 -0.609375 0.765625 -1.09375l1.65625 -2.328125l1.984375 0l-3.390625 4.640625l3.65625 5.21875l-2.046875 0l-2.03125 -3.0625l-0.53125 -0.828125l-2.59375 3.890625l-2.015625 0z" fill-rule="nonzero"></path><path fill="#cfe2f3" d="m347.3622 136.81627l194.23624 0l0 52.787415l-194.23624 0z" fill-rule="nonzero"></path><path stroke="#000000" stroke-width="1.0" stroke-linejoin="round" stroke-linecap="butt" d="m347.3622 136.81627l194.23624 0l0 52.787415l-194.23624 0z" fill-rule="nonzero"></path><path fill="#000000" d="m402.52228 166.2706l1.625 -0.21875q0.0625 1.546875 0.578125 2.125q0.53125 0.578125 1.4375 0.578125q0.6875 0 1.171875 -0.3125q0.5 -0.3125 0.671875 -0.84375q0.1875 -0.53125 0.1875 -1.703125l0 -9.359375l1.8125 0l0 9.265625q0 1.703125 -0.421875 2.640625q-0.40625 0.9375 -1.3125 1.4375q-0.890625 0.484375 -2.09375 0.484375q-1.796875 0 -2.75 -1.03125q-0.9375 -1.03125 -0.90625 -3.0625zm9.640625 -0.515625l1.6875 -0.140625q0.125 1.015625 0.5625 1.671875q0.4375 0.65625 1.359375 1.0625q0.9375 0.40625 2.09375 0.40625q1.03125 0 1.8125 -0.3125q0.796875 -0.3125 1.1875 -0.84375q0.390625 -0.53125 0.390625 -1.15625q0 -0.640625 -0.375 -1.109375q-0.375 -0.484375 -1.234375 -0.8125q-0.546875 -0.21875 -2.421875 -0.65625q-1.875 -0.453125 -2.625 -0.859375q-0.96875 -0.515625 -1.453125 -1.265625q-0.46875 -0.75 -0.46875 -1.6875q0 -1.03125 0.578125 -1.921875q0.59375 -0.90625 1.703125 -1.359375q1.125 -0.46875 2.5 -0.46875q1.515625 0 2.671875 0.484375q1.15625 0.484375 1.765625 1.4375q0.625 0.9375 0.671875 2.140625l-1.71875 0.125q-0.140625 -1.28125 -0.953125 -1.9375q-0.796875 -0.671875 -2.359375 -0.671875q-1.625 0 -2.375 0.609375q-0.75 0.59375 -0.75 1.4375q0 0.734375 0.53125 1.203125q0.515625 0.46875 2.703125 0.96875q2.203125 0.5 3.015625 0.875q1.1875 0.546875 1.75 1.390625q0.578125 0.828125 0.578125 1.921875q0 1.09375 -0.625 2.0625q-0.625 0.953125 -1.796875 1.484375q-1.15625 0.53125 -2.609375 0.53125q-1.84375 0 -3.09375 -0.53125q-1.25 -0.546875 -1.96875 -1.625q-0.703125 -1.078125 -0.734375 -2.453125zm12.506073 -2.25q0 -3.390625 1.8125 -5.296875q1.828125 -1.921875 4.703125 -1.921875q1.875 0 3.390625 0.90625q1.515625 0.890625 2.296875 2.5q0.796875 1.609375 0.796875 3.65625q0 2.0625 -0.84375 3.703125q-0.828125 1.625 -2.359375 2.46875q-1.53125 0.84375 -3.296875 0.84375q-1.921875 0 -3.4375 -0.921875q-1.5 -0.9375 -2.28125 -2.53125q-0.78125 -1.609375 -0.78125 -3.40625zm1.859375 0.03125q0 2.453125 1.3125 3.875q1.328125 1.40625 3.3125 1.40625q2.03125 0 3.34375 -1.421875q1.3125 -1.4375 1.3125 -4.0625q0 -1.65625 -0.5625 -2.890625q-0.546875 -1.234375 -1.640625 -1.921875q-1.078125 -0.6875 -2.421875 -0.6875q-1.90625 0 -3.28125 1.3125q-1.375 1.3125 -1.375 4.390625zm13.183289 6.59375l0 -13.59375l1.84375 0l7.140625 10.671875l0 -10.671875l1.71875 0l0 13.59375l-1.84375 0l-7.140625 -10.6875l0 10.6875l-1.71875 0zm17.171875 0l5.234375 -13.59375l1.9375 0l5.5625 13.59375l-2.046875 0l-1.59375 -4.125l-5.6875 0l-1.484375 4.125l-1.921875 0zm3.921875 -5.578125l4.609375 0l-1.40625 -3.78125q-0.65625 -1.703125 -0.96875 -2.8125q-0.265625 1.3125 -0.734375 2.59375l-1.5 4.0zm10.021698 5.578125l0 -13.59375l5.1250305 0q1.359375 0 2.078125 0.125q1.0 0.171875 1.671875 0.640625q0.671875 0.46875 1.078125 1.3125q0.421875 0.84375 0.421875 1.84375q0 1.734375 -1.109375 2.9375q-1.09375 1.203125 -3.984375 1.203125l-3.4844055 0l0 5.53125l-1.796875 0zm1.796875 -7.140625l3.5156555 0q1.75 0 2.46875 -0.640625q0.734375 -0.65625 0.734375 -1.828125q0 -0.859375 -0.4375 -1.46875q-0.421875 -0.609375 -1.125 -0.796875q-0.453125 -0.125 -1.671875 -0.125l-3.4844055 0l0 4.859375zm10.9436035 7.140625l0 -13.59375l1.8125 0l0 13.59375l-1.8125 0z" fill-rule="nonzero"></path><path fill="#000000" fill-opacity="0.0" d="m140.96326 96.0105l54.866135 0" fill-rule="nonzero"></path><path stroke="#000000" stroke-width="1.0" stroke-linejoin="round" stroke-linecap="butt" d="m140.96326 96.0105l48.866135 0" fill-rule="evenodd"></path><path fill="#000000" stroke="#000000" stroke-width="1.0" stroke-linecap="butt" d="m189.82939 97.66223l4.538101 -1.6517334l-4.538101 -1.6517334z" fill-rule="evenodd"></path><path fill="#000000" fill-opacity="0.0" d="m266.86877 96.0105l80.50394 -52.7874" fill-rule="nonzero"></path><path stroke="#000000" stroke-width="1.0" stroke-linejoin="round" stroke-linecap="butt" d="m266.86877 96.0105l75.48639 -49.49735" fill-rule="evenodd"></path><path fill="#000000" stroke="#000000" stroke-width="1.0" stroke-linecap="butt" d="m343.2609 47.894417l2.8892822 -3.8696976l-4.700714 1.1071625z" fill-rule="evenodd"></path><path fill="#000000" fill-opacity="0.0" d="m37.766403 5.7716537l102.708664 0l0 39.842518l-102.708664 0z" fill-rule="nonzero"></path><path fill="#000000" d="m56.30064 32.69165l0 -13.593748l5.109375 0q1.546875 0 2.484375 0.40625q0.9531288 0.40625 1.4843788 1.265625q0.53125 0.859375 0.53125 1.796875q0 0.875 -0.46875 1.65625q-0.46875 0.765625 -1.4375 1.234375q1.234375 0.359375 1.890625 1.234375q0.671875 0.875 0.671875 2.0625q0 0.953125 -0.40625 1.78125q-0.390625 0.8125 -0.984375 1.265625q-0.59375 0.4374981 -1.5000038 0.6718731q-0.890625 0.21875 -2.1875 0.21875l-5.1875 0zm1.796875 -7.890623l2.9375 0q1.203125 0 1.71875 -0.15625q0.6875 -0.203125 1.03125 -0.671875q0.3593788 -0.46875 0.3593788 -1.1875q0 -0.671875 -0.3281288 -1.1875q-0.328125 -0.515625 -0.9375 -0.703125q-0.59375 -0.203125 -2.0625 -0.203125l-2.71875 0l0 4.109375zm0 6.28125l3.390625 0q0.875 0 1.21875 -0.0625q0.625 -0.109375 1.046875 -0.359375q0.4218788 -0.265625 0.6875038 -0.765625q0.265625 -0.5 0.265625 -1.140625q0 -0.765625 -0.390625 -1.328125q-0.3906288 -0.5625 -1.0781288 -0.78125q-0.6875 -0.234375 -1.984375 -0.234375l-3.15625 0l0 4.671875zm10.490452 1.6093731l0 -9.859373l1.5 0l0 1.5q0.578125 -1.046875 1.0625 -1.375q0.484375 -0.34375 1.078125 -0.34375q0.84375 0 1.71875 0.546875l-0.578125 1.546875q-0.609375 -0.359375 -1.234375 -0.359375q-0.546875 0 -0.984375 0.328125q-0.421875 0.328125 -0.609375 0.90625q-0.28125 0.890625 -0.28125 1.953125l0 5.156248l-1.671875 0zm5.603302 -4.921873q0 -2.734375 1.53125 -4.0625q1.265625 -1.09375 3.09375 -1.09375q2.03125 0 3.3125 1.34375q1.296875 1.328125 1.296875 3.671875q0 1.90625 -0.578125 3.0q-0.5625 1.078125 -1.65625 1.6874981q-1.078125 0.59375 -2.375 0.59375q-2.0625 0 -3.34375 -1.3281231q-1.28125 -1.328125 -1.28125 -3.8125zm1.71875 0q0 1.890625 0.828125 2.828125q0.828125 0.9375 2.078125 0.9375q1.25 0 2.0625 -0.9375q0.828125 -0.953125 0.828125 -2.890625q0 -1.828125 -0.828125 -2.765625q-0.828125 -0.9375 -2.0625 -0.9375q-1.25 0 -2.078125 0.9375q-0.828125 0.9375 -0.828125 2.828125zm11.110092 4.921873l-3.015625 -9.859373l1.71875 0l1.5625 5.6875l0.59375 2.125q0.03125 -0.15625 0.5 -2.03125l1.578125 -5.78125l1.71875 0l1.46875 5.71875l0.484375 1.890625l0.578125 -1.90625l1.6875 -5.703125l1.625 0l-3.078125 9.859373l-1.734375 0l-1.578125 -5.906248l-0.375 -1.671875l-2.0 7.578123l-1.734375 0zm10.972946 -2.937498l1.65625 -0.265625q0.140625 1.0 0.765625 1.53125q0.640625 0.515625 1.78125 0.515625q1.15625 0 1.703125 -0.46875q0.5625 -0.46875 0.5625 -1.09375q0 -0.5625 -0.484375 -0.890625q-0.34375 -0.21875 -1.703125 -0.5625q-1.84375 -0.46875 -2.5625 -0.796875q-0.703125 -0.34375 -1.078125 -0.9375q-0.359375 -0.609375 -0.359375 -1.328125q0 -0.65625 0.296875 -1.21875q0.3125 -0.5625 0.828125 -0.9375q0.390625 -0.28125 1.0625 -0.484375q0.671875 -0.203125 1.4375 -0.203125q1.171875 0 2.046875 0.34375q0.875 0.328125 1.28125 0.90625q0.421875 0.5625 0.578125 1.515625l-1.625 0.21875q-0.109375 -0.75 -0.65625 -1.171875q-0.53125 -0.4375 -1.5 -0.4375q-1.15625 0 -1.640625 0.390625q-0.484375 0.375 -0.484375 0.875q0 0.328125 0.203125 0.59375q0.203125 0.265625 0.640625 0.4375q0.25 0.09375 1.46875 0.4375q1.765625 0.46875 2.46875 0.765625q0.703125 0.296875 1.09375 0.875q0.40625 0.578125 0.40625 1.4375q0 0.828125 -0.484375 1.578125q-0.484375 0.7343731 -1.40625 1.1406231q-0.921875 0.390625 -2.078125 0.390625q-1.921875 0 -2.9375 -0.796875q-1.0 -0.7968731 -1.28125 -2.359373zm16.75 -0.234375l1.71875 0.21875q-0.40625 1.5 -1.515625 2.343748q-1.09375 0.828125 -2.8125 0.828125q-2.15625 0 -3.421875 -1.3281231q-1.265625 -1.328125 -1.265625 -3.734375q0 -2.484375 1.265625 -3.859375q1.28125 -1.375 3.328125 -1.375q1.984375 0 3.234375 1.34375q1.25 1.34375 1.25 3.796875q0 0.140625 -0.015625 0.4375l-7.34375 0q0.09375 1.625 0.921875 2.484375q0.828125 0.859375 2.0625 0.859375q0.90625 0 1.546875 -0.46875q0.65625 -0.484375 1.046875 -1.546875zm-5.484375 -2.703125l5.5 0q-0.109375 -1.234375 -0.625 -1.859375q-0.796875 -0.96875 -2.078125 -0.96875q-1.140625 0 -1.9375 0.78125q-0.78125 0.765625 -0.859375 2.046875zm9.094467 5.874998l0 -9.859373l1.5 0l0 1.5q0.578125 -1.046875 1.0625 -1.375q0.484375 -0.34375 1.078125 -0.34375q0.84375 0 1.71875 0.546875l-0.578125 1.546875q-0.609375 -0.359375 -1.234375 -0.359375q-0.546875 0 -0.984375 0.328125q-0.421875 0.328125 -0.609375 0.90625q-0.28125 0.890625 -0.28125 1.953125l0 5.156248l-1.671875 0z" fill-rule="nonzero"></path><path fill="#000000" fill-opacity="0.0" d="m266.86877 96.0105l80.50394 67.2126" fill-rule="nonzero"></path><path stroke="#000000" stroke-width="1.0" stroke-linejoin="round" stroke-linecap="butt" d="m266.86877 96.0105l75.89813 63.367233" fill-rule="evenodd"></path><path fill="#000000" stroke="#000000" stroke-width="1.0" stroke-linecap="butt" d="m341.70834 160.64566l4.542145 1.6405182l-2.4249878 -4.176361z" fill-rule="evenodd"></path><path fill="#cfe2f3" d="m347.3622 16.816273l194.23624 0l0 52.787403l-194.23624 0z" fill-rule="nonzero"></path><path stroke="#000000" stroke-width="1.0" stroke-linejoin="round" stroke-linecap="butt" d="m347.3622 16.816273l194.23624 0l0 52.787403l-194.23624 0z" fill-rule="nonzero"></path><path fill="#000000" d="m402.52228 46.270596l1.625 -0.21875q0.0625 1.546875 0.578125 2.125q0.53125 0.578125 1.4375 0.578125q0.6875 0 1.171875 -0.3125q0.5 -0.3125 0.671875 -0.84375q0.1875 -0.53125 0.1875 -1.703125l0 -9.359375l1.8125 0l0 9.265625q0 1.703125 -0.421875 2.640625q-0.40625 0.9375 -1.3125 1.4375q-0.890625 0.484375 -2.09375 0.484375q-1.796875 0 -2.75 -1.03125q-0.9375 -1.03125 -0.90625 -3.0625zm9.640625 -0.515625l1.6875 -0.140625q0.125 1.015625 0.5625 1.671875q0.4375 0.65625 1.359375 1.0625q0.9375 0.40625 2.09375 0.40625q1.03125 0 1.8125 -0.3125q0.796875 -0.3125 1.1875 -0.84375q0.390625 -0.53125 0.390625 -1.15625q0 -0.640625 -0.375 -1.109375q-0.375 -0.484375 -1.234375 -0.8125q-0.546875 -0.21875 -2.421875 -0.65625q-1.875 -0.453125 -2.625 -0.859375q-0.96875 -0.515625 -1.453125 -1.265625q-0.46875 -0.75 -0.46875 -1.6875q0 -1.03125 0.578125 -1.921875q0.59375 -0.90625 1.703125 -1.359375q1.125 -0.46875 2.5 -0.46875q1.515625 0 2.671875 0.484375q1.15625 0.484375 1.765625 1.4375q0.625 0.9375 0.671875 2.140625l-1.71875 0.125q-0.140625 -1.28125 -0.953125 -1.9375q-0.796875 -0.671875 -2.359375 -0.671875q-1.625 0 -2.375 0.609375q-0.75 0.59375 -0.75 1.4375q0 0.734375 0.53125 1.203125q0.515625 0.46875 2.703125 0.96875q2.203125 0.5 3.015625 0.875q1.1875 0.546875 1.75 1.390625q0.578125 0.828125 0.578125 1.921875q0 1.09375 -0.625 2.0625q-0.625 0.953125 -1.796875 1.484375q-1.15625 0.53125 -2.609375 0.53125q-1.84375 0 -3.09375 -0.53125q-1.25 -0.546875 -1.96875 -1.625q-0.703125 -1.078125 -0.734375 -2.453125zm12.506073 -2.25q0 -3.390625 1.8125 -5.296875q1.828125 -1.921875 4.703125 -1.921875q1.875 0 3.390625 0.90625q1.515625 0.890625 2.296875 2.5q0.796875 1.609375 0.796875 3.65625q0 2.0625 -0.84375 3.703125q-0.828125 1.625 -2.359375 2.46875q-1.53125 0.84375 -3.296875 0.84375q-1.921875 0 -3.4375 -0.921875q-1.5 -0.9375 -2.28125 -2.53125q-0.78125 -1.609375 -0.78125 -3.40625zm1.859375 0.03125q0 2.453125 1.3125 3.875q1.328125 1.40625 3.3125 1.40625q2.03125 0 3.34375 -1.421875q1.3125 -1.4375 1.3125 -4.0625q0 -1.65625 -0.5625 -2.890625q-0.546875 -1.234375 -1.640625 -1.921875q-1.078125 -0.6875 -2.421875 -0.6875q-1.90625 0 -3.28125 1.3125q-1.375 1.3125 -1.375 4.390625zm13.183289 6.59375l0 -13.59375l1.84375 0l7.140625 10.671875l0 -10.671875l1.71875 0l0 13.59375l-1.84375 0l-7.140625 -10.6875l0 10.6875l-1.71875 0zm17.171875 0l5.234375 -13.59375l1.9375 0l5.5625 13.59375l-2.046875 0l-1.59375 -4.125l-5.6875 0l-1.484375 4.125l-1.921875 0zm3.921875 -5.578125l4.609375 0l-1.40625 -3.78125q-0.65625 -1.703125 -0.96875 -2.8125q-0.265625 1.3125 -0.734375 2.59375l-1.5 4.0zm10.021698 5.578125l0 -13.59375l5.1250305 0q1.359375 0 2.078125 0.125q1.0 0.171875 1.671875 0.640625q0.671875 0.46875 1.078125 1.3125q0.421875 0.84375 0.421875 1.84375q0 1.734375 -1.109375 2.9375q-1.09375 1.203125 -3.984375 1.203125l-3.4844055 0l0 5.53125l-1.796875 0zm1.796875 -7.140625l3.5156555 0q1.75 0 2.46875 -0.640625q0.734375 -0.65625 0.734375 -1.828125q0 -0.859375 -0.4375 -1.46875q-0.421875 -0.609375 -1.125 -0.796875q-0.453125 -0.125 -1.671875 -0.125l-3.4844055 0l0 4.859375zm10.9436035 7.140625l0 -13.59375l1.8125 0l0 13.59375l-1.8125 0z" fill-rule="nonzero"></path><path fill="#000000" fill-opacity="0.0" d="m260.5098 62.673943l59.338562 -39.02362l16.818909 25.543306l-59.338593 39.02362z" fill-rule="nonzero"></path><path fill="#000000" d="m286.4441 71.461044l-0.8850403 -1.3441544l4.8172607 -3.1680374l2.7754517 4.2151794q-0.5253601 1.6171646 -1.4212036 2.8421478q-0.882782 1.2163925 -2.1229858 2.032013q-1.6710205 1.098938 -3.5144043 1.2826614q-1.8303223 0.17513275 -3.4289246 -0.7184601q-1.5855408 -0.90218353 -2.6854248 -2.5725937q-1.0912781 -1.6573563 -1.344574 -3.5478973q-0.2532959 -1.8905411 0.59677124 -3.4407425q0.8414612 -1.5632477 2.5386047 -2.6793594q1.2271729 -0.80703735 2.4857178 -1.0549774q1.2630005 -0.26958084 2.2969666 0.078998566q1.0253601 0.33553314 2.081787 1.2864723l-1.117096 1.2582932q-0.82821655 -0.6895981 -1.5333557 -0.93652344q-0.70510864 -0.24692535 -1.6076965 -0.08345795q-0.9026184 0.16345978 -1.7642212 0.73010254q-1.0313416 0.6782532 -1.5823059 1.4894104q-0.53790283 0.80257416 -0.66415405 1.6336517q-0.121795654 0.80944824 0.033996582 1.5859222q0.24356079 1.3359146 1.0598755 2.575676q0.99676514 1.5138092 2.1977844 2.2013474q1.2055054 0.6659012 2.5242004 0.50930786q1.3317566 -0.16517639 2.4544678 -0.9035263q0.979126 -0.64391327 1.6568298 -1.6319275q0.67770386 -0.98802185 0.8857727 -1.7232895l-1.3920288 -2.1141129l-3.3420715 2.197876zm9.767395 -0.04639435l-7.475708 -11.353577l8.224579 -5.408844l0.87646484 1.3311081l-6.7232666 4.4215164l2.294281 3.4843712l6.29245 -4.138195l0.87646484 1.3311081l-6.29245 4.138199l2.543457 3.8628235l6.984375 -4.5932236l0.8850403 1.3441544l-8.485687 5.580559zm13.255798 -8.7175865l-6.599243 -10.022469l-3.7337036 2.4554443l-0.87646484 -1.3311081l8.994812 -5.91539l0.87646484 1.3311119l-3.7597961 2.4726143l6.599243 10.022465l-1.5013123 0.9873314z" fill-rule="nonzero"></path><path fill="#000000" fill-opacity="0.0" d="m296.04047 78.00351l55.93701 43.779526l-18.86615 24.094498l-55.93698 -43.779533z" fill-rule="nonzero"></path><path fill="#000000" d="m287.68823 105.651276l8.380585 -10.703079l4.035858 3.1587067q1.0704956 0.8378296 1.5594177 1.3792343q0.6815491 0.7516556 0.9216614 1.5348282q0.24008179 0.7831726 0.03982544 1.6978836q-0.18795776 0.9243469 -0.80444336 1.7117004q-1.0692444 1.3655624 -2.6846008 1.6291046q-1.6030273 0.27317047 -3.879364 -1.5084152l-2.7438965 -2.1475372l-3.4100342 4.355049l-1.4150085 -1.1074753zm5.81723 -4.514717l2.7684937 2.1667938q1.3781128 1.0785828 2.3390503 1.0171738q0.98291016 -0.064086914 1.7053528 -0.986763q0.5298157 -0.6766281 0.5609741 -1.4260712q0.04345703 -0.7398071 -0.39465332 -1.3207932q-0.27975464 -0.37769318 -1.239502 -1.1288528l-2.7438965 -2.1475296l-2.995819 3.8260422zm7.6355896 6.630829q2.090332 -2.6696243 4.6928406 -3.0534134q2.6244812 -0.38645935 4.888489 1.385498q1.476532 1.1556168 2.1113586 2.8032837q0.6444702 1.6353683 0.2675171 3.3840256q-0.36465454 1.7582855 -1.6265564 3.369896q-1.2715454 1.6239166 -2.9474487 2.3956375q-1.6539307 0.7690506 -3.3799438 0.4896164q-1.7260132 -0.27942657 -3.1164246 -1.3676376q-1.5134583 -1.1845169 -2.1386414 -2.8444824q-0.6032715 -1.6626434 -0.2359314 -3.3989944q0.37695312 -1.7486572 1.4847412 -3.1634293zm1.4449463 1.1705933q-1.5123596 1.9314728 -1.3553467 3.859932q0.17892456 1.9257812 1.7415771 3.1488113q1.5995789 1.2519226 3.509735 0.9413452q1.9197998 -0.3228836 3.5381165 -2.3896866q1.0210876 -1.3040543 1.3391418 -2.6226273q0.33032227 -1.3089447 -0.10714722 -2.5243683q-0.4251709 -1.2057877 -1.4833374 -2.0339813q-1.5011597 -1.174881 -3.393097 -0.9889374q-1.8919678 0.1859436 -3.7896423 2.6095123zm8.546234 9.506287l1.4155884 0.92933655q-0.52770996 0.87670135 -0.58773804 1.6630478q-0.060058594 0.78634644 0.4154358 1.6743851q0.4878235 0.89767456 1.398346 1.6103058q0.8121033 0.6355972 1.6199951 0.8710556q0.8201599 0.2450943 1.4552917 0.06756592q0.63513184 -0.17752838 1.0204468 -0.6696243q0.3949585 -0.50439453 0.38864136 -1.1045914q0.0032958984 -0.6124954 -0.4711609 -1.4005051q-0.29580688 -0.5092926 -1.502594 -2.0093842q-1.1972046 -1.5123901 -1.5373535 -2.2945023q-0.44500732 -1.0030518 -0.3640747 -1.8921051q0.09326172 -0.8794174 0.67123413 -1.6175613q0.6357727 -0.8119583 1.6401062 -1.1568756q1.0262756 -0.3475952 2.1792297 -0.020614624q1.1749268 0.32430267 2.257721 1.1717529q1.193512 0.9341278 1.8054504 2.0281372q0.61190796 1.0940094 0.5041809 2.2200317q-0.08581543 1.123352 -0.7906189 2.0995255l-1.430542 -0.96089935q0.6791382 -1.0954666 0.44387817 -2.112938q-0.21331787 -1.0201416 -1.4437561 -1.9831619q-1.2796631 -1.0015411 -2.2459717 -0.98399353q-0.95666504 0.005241394 -1.4768372 0.6695709q-0.45272827 0.5782089 -0.32336426 1.2747116q0.11706543 0.68686676 1.5314331 2.4287643q1.4266968 1.7515335 1.8353271 2.5475616q0.59799194 1.1624832 0.5207825 2.1735q-0.055267334 1.0083389 -0.72958374 1.8695068q-0.6742859 0.8611679 -1.7637024 1.2387085q-1.0798035 0.36523438 -2.3301392 0.06125641q-1.2380676 -0.2943573 -2.3823853 -1.1899643q-1.4519043 -1.1363602 -2.1087646 -2.325058q-0.6471863 -1.2009964 -0.54852295 -2.4928513q0.110961914 -1.2822266 0.934021 -2.3840942zm10.301117 13.617897l7.398041 -9.448242l-3.5190735 -2.7542343l0.98254395 -1.2548447l8.477783 6.635208l-0.98254395 1.254837l-3.5437012 -2.773491l-7.398041 9.448235l-1.4150085 -1.1074677z" fill-rule="nonzero"></path><path fill="#cfe2f3" d="m596.2572 20.064304l0 0c0 2.9592896 9.595947 5.358267 21.433105 5.358267c11.837158 0 21.433044 -2.3989773 21.433044 -5.358267l0 46.29134c0 2.9592896 -9.595886 5.358261 -21.433044 5.358261c-11.837158 0 -21.433105 -2.3989716 -21.433105 -5.358261z" fill-rule="nonzero"></path><path fill="#e2edf7" d="m596.2572 20.064304l0 0c0 -2.9592896 9.595947 -5.358268 21.433105 -5.358268c11.837158 0 21.433044 2.3989782 21.433044 5.358268l0 0c0 2.9592896 -9.595886 5.358267 -21.433044 5.358267c-11.837158 0 -21.433105 -2.3989773 -21.433105 -5.358267z" fill-rule="nonzero"></path><path fill="#000000" fill-opacity="0.0" d="m639.12335 20.064304l0 0c0 2.9592896 -9.595886 5.358267 -21.433044 5.358267c-11.837158 0 -21.433105 -2.3989773 -21.433105 -5.358267l0 0c0 -2.9592896 9.595947 -5.358268 21.433105 -5.358268c11.837158 0 21.433044 2.3989782 21.433044 5.358268l0 46.29134c0 2.9592896 -9.595886 5.358261 -21.433044 5.358261c-11.837158 0 -21.433105 -2.3989716 -21.433105 -5.358261l0 -46.29134" fill-rule="nonzero"></path><path stroke="#000000" stroke-width="1.0" stroke-linejoin="round" stroke-linecap="butt" d="m639.12335 20.064304l0 0c0 2.9592896 -9.595886 5.358267 -21.433044 5.358267c-11.837158 0 -21.433105 -2.3989773 -21.433105 -5.358267l0 0c0 -2.9592896 9.595947 -5.358268 21.433105 -5.358268c11.837158 0 21.433044 2.3989782 21.433044 5.358268l0 46.29134c0 2.9592896 -9.595886 5.358261 -21.433044 5.358261c-11.837158 0 -21.433105 -2.3989716 -21.433105 -5.358261l0 -46.29134" fill-rule="nonzero"></path><path fill="#000000" fill-opacity="0.0" d="m654.47504 21.713911l123.90552 0l0 42.992126l-123.90552 0z" fill-rule="nonzero"></path><path fill="#000000" d="m664.9438 48.633907l0 -13.59375l4.6875 0q1.578125 0 2.421875 0.1875q1.15625 0.265625 1.984375 0.96875q1.078125 0.921875 1.609375 2.34375q0.53125 1.40625 0.53125 3.21875q0 1.546875 -0.359375 2.75q-0.359375 1.1875 -0.921875 1.984375q-0.5625 0.78125 -1.234375 1.234375q-0.671875 0.4375 -1.625 0.671875q-0.953125 0.234375 -2.1875 0.234375l-4.90625 0zm1.796875 -1.609375l2.90625 0q1.34375 0 2.109375 -0.25q0.765625 -0.25 1.21875 -0.703125q0.640625 -0.640625 1.0 -1.71875q0.359375 -1.078125 0.359375 -2.625q0 -2.125 -0.703125 -3.265625q-0.703125 -1.15625 -1.703125 -1.546875q-0.71875 -0.28125 -2.328125 -0.28125l-2.859375 0l0 10.390625zm11.597961 1.609375l0 -13.59375l5.109375 0q1.546875 0 2.484375 0.40625q0.953125 0.40625 1.484375 1.265625q0.53125 0.859375 0.53125 1.796875q0 0.875 -0.46875 1.65625q-0.46875 0.765625 -1.4375 1.234375q1.234375 0.359375 1.890625 1.234375q0.671875 0.875 0.671875 2.0625q0 0.953125 -0.40625 1.78125q-0.390625 0.8125 -0.984375 1.265625q-0.59375 0.4375 -1.5 0.671875q-0.890625 0.21875 -2.1875 0.21875l-5.1875 0zm1.796875 -7.890625l2.9375 0q1.203125 0 1.71875 -0.15625q0.6875 -0.203125 1.03125 -0.671875q0.359375 -0.46875 0.359375 -1.1875q0 -0.671875 -0.328125 -1.1875q-0.328125 -0.515625 -0.9375 -0.703125q-0.59375 -0.203125 -2.0625 -0.203125l-2.71875 0l0 4.109375zm0 6.28125l3.390625 0q0.875 0 1.21875 -0.0625q0.625 -0.109375 1.046875 -0.359375q0.421875 -0.265625 0.6875 -0.765625q0.265625 -0.5 0.265625 -1.140625q0 -0.765625 -0.390625 -1.328125q-0.390625 -0.5625 -1.078125 -0.78125q-0.6875 -0.234375 -1.984375 -0.234375l-3.15625 0l0 4.671875zm15.939392 1.609375l0 -13.59375l6.03125 0q1.8125 0 2.75 0.359375q0.953125 0.359375 1.515625 1.296875q0.5625 0.921875 0.5625 2.046875q0 1.453125 -0.9375 2.453125q-0.921875 0.984375 -2.890625 1.25q0.71875 0.34375 1.09375 0.671875q0.78125 0.734375 1.484375 1.8125l2.375 3.703125l-2.265625 0l-1.796875 -2.828125q-0.796875 -1.21875 -1.3125 -1.875q-0.5 -0.65625 -0.90625 -0.90625q-0.40625 -0.265625 -0.8125 -0.359375q-0.3125 -0.078125 -1.015625 -0.078125l-2.078125 0l0 6.046875l-1.796875 0zm1.796875 -7.59375l3.859375 0q1.234375 0 1.921875 -0.25q0.703125 -0.265625 1.0625 -0.828125q0.375 -0.5625 0.375 -1.21875q0 -0.96875 -0.703125 -1.578125q-0.703125 -0.625 -2.21875 -0.625l-4.296875 0l0 4.5zm18.176086 4.421875l1.71875 0.21875q-0.40625 1.5 -1.515625 2.34375q-1.09375 0.828125 -2.8125 0.828125q-2.15625 0 -3.421875 -1.328125q-1.265625 -1.328125 -1.265625 -3.734375q0 -2.484375 1.265625 -3.859375q1.28125 -1.375 3.328125 -1.375q1.984375 0 3.234375 1.34375q1.25 1.34375 1.25 3.796875q0 0.140625 -0.015625 0.4375l-7.34375 0q0.09375 1.625 0.921875 2.484375q0.828125 0.859375 2.0625 0.859375q0.90625 0 1.546875 -0.46875q0.65625 -0.484375 1.046875 -1.546875zm-5.484375 -2.703125l5.5 0q-0.109375 -1.234375 -0.625 -1.859375q-0.796875 -0.96875 -2.078125 -0.96875q-1.140625 0 -1.9375 0.78125q-0.78125 0.765625 -0.859375 2.046875zm9.110046 9.65625l0 -13.640625l1.53125 0l0 1.28125q0.53125 -0.75 1.203125 -1.125q0.6875 -0.375 1.640625 -0.375q1.265625 0 2.234375 0.65625q0.96875 0.640625 1.453125 1.828125q0.5 1.1875 0.5 2.59375q0 1.515625 -0.546875 2.734375q-0.546875 1.203125 -1.578125 1.84375q-1.03125 0.640625 -2.171875 0.640625q-0.84375 0 -1.515625 -0.34375q-0.65625 -0.359375 -1.078125 -0.890625l0 4.796875l-1.671875 0zm1.515625 -8.65625q0 1.90625 0.765625 2.8125q0.78125 0.90625 1.875 0.90625q1.109375 0 1.890625 -0.9375q0.796875 -0.9375 0.796875 -2.921875q0 -1.875 -0.78125 -2.8125q-0.765625 -0.9375 -1.84375 -0.9375q-1.0625 0 -1.890625 1.0q-0.8125 1.0 -0.8125 2.890625zm8.828857 4.875l0 -13.59375l1.671875 0l0 13.59375l-1.671875 0zm4.1917114 -11.6875l0 -1.90625l1.671875 0l0 1.90625l-1.671875 0zm0 11.6875l0 -9.859375l1.671875 0l0 9.859375l-1.671875 0zm10.566711 -3.609375l1.640625 0.21875q-0.265625 1.6875 -1.375 2.65625q-1.109375 0.953125 -2.734375 0.953125q-2.015625 0 -3.25 -1.3125q-1.21875 -1.328125 -1.21875 -3.796875q0 -1.59375 0.515625 -2.78125q0.53125 -1.203125 1.609375 -1.796875q1.09375 -0.609375 2.359375 -0.609375q1.609375 0 2.625 0.8125q1.015625 0.8125 1.3125 2.3125l-1.625 0.25q-0.234375 -1.0 -0.828125 -1.5q-0.59375 -0.5 -1.421875 -0.5q-1.265625 0 -2.0625 0.90625q-0.78125 0.90625 -0.78125 2.859375q0 1.984375 0.765625 2.890625q0.765625 0.890625 1.984375 0.890625q0.984375 0 1.640625 -0.59375q0.65625 -0.609375 0.84375 -1.859375zm9.328125 2.390625q-0.9375 0.796875 -1.796875 1.125q-0.859375 0.3125 -1.84375 0.3125q-1.609375 0 -2.484375 -0.78125q-0.875 -0.796875 -0.875 -2.03125q0 -0.734375 0.328125 -1.328125q0.328125 -0.59375 0.859375 -0.953125q0.53125 -0.359375 1.203125 -0.546875q0.5 -0.140625 1.484375 -0.25q2.03125 -0.25 2.984375 -0.578125q0 -0.34375 0 -0.4375q0 -1.015625 -0.46875 -1.4375q-0.640625 -0.5625 -1.90625 -0.5625q-1.171875 0 -1.734375 0.40625q-0.5625 0.40625 -0.828125 1.46875l-1.640625 -0.234375q0.234375 -1.046875 0.734375 -1.6875q0.515625 -0.640625 1.46875 -0.984375q0.96875 -0.359375 2.25 -0.359375q1.265625 0 2.046875 0.296875q0.78125 0.296875 1.15625 0.75q0.375 0.453125 0.515625 1.140625q0.09375 0.421875 0.09375 1.53125l0 2.234375q0 2.328125 0.09375 2.953125q0.109375 0.609375 0.4375 1.171875l-1.75 0q-0.265625 -0.515625 -0.328125 -1.21875zm-0.140625 -3.71875q-0.90625 0.359375 -2.734375 0.625q-1.03125 0.140625 -1.453125 0.328125q-0.421875 0.1875 -0.65625 0.546875q-0.234375 0.359375 -0.234375 0.796875q0 0.671875 0.5 1.125q0.515625 0.4375 1.484375 0.4375q0.96875 0 1.71875 -0.421875q0.75 -0.4375 1.109375 -1.15625q0.265625 -0.578125 0.265625 -1.671875l0 -0.609375z" fill-rule="nonzero"></path><path fill="#000000" fill-opacity="0.0" d="m654.47504 141.71391l123.90552 0l0 42.992126l-123.90552 0z" fill-rule="nonzero"></path><path fill="#000000" d="m664.9438 168.63391l0 -13.59375l4.6875 0q1.578125 0 2.421875 0.1875q1.15625 0.265625 1.984375 0.96875q1.078125 0.921875 1.609375 2.34375q0.53125 1.40625 0.53125 3.21875q0 1.546875 -0.359375 2.75q-0.359375 1.1875 -0.921875 1.984375q-0.5625 0.78125 -1.234375 1.234375q-0.671875 0.4375 -1.625 0.671875q-0.953125 0.234375 -2.1875 0.234375l-4.90625 0zm1.796875 -1.609375l2.90625 0q1.34375 0 2.109375 -0.25q0.765625 -0.25 1.21875 -0.703125q0.640625 -0.640625 1.0 -1.71875q0.359375 -1.078125 0.359375 -2.625q0 -2.125 -0.703125 -3.265625q-0.703125 -1.15625 -1.703125 -1.546875q-0.71875 -0.28125 -2.328125 -0.28125l-2.859375 0l0 10.390625zm11.597961 1.609375l0 -13.59375l5.109375 0q1.546875 0 2.484375 0.40625q0.953125 0.40625 1.484375 1.265625q0.53125 0.859375 0.53125 1.796875q0 0.875 -0.46875 1.65625q-0.46875 0.765625 -1.4375 1.234375q1.234375 0.359375 1.890625 1.234375q0.671875 0.875 0.671875 2.0625q0 0.953125 -0.40625 1.78125q-0.390625 0.8125 -0.984375 1.265625q-0.59375 0.4375 -1.5 0.671875q-0.890625 0.21875 -2.1875 0.21875l-5.1875 0zm1.796875 -7.890625l2.9375 0q1.203125 0 1.71875 -0.15625q0.6875 -0.203125 1.03125 -0.671875q0.359375 -0.46875 0.359375 -1.1875q0 -0.671875 -0.328125 -1.1875q-0.328125 -0.515625 -0.9375 -0.703125q-0.59375 -0.203125 -2.0625 -0.203125l-2.71875 0l0 4.109375zm0 6.28125l3.390625 0q0.875 0 1.21875 -0.0625q0.625 -0.109375 1.046875 -0.359375q0.421875 -0.265625 0.6875 -0.765625q0.265625 -0.5 0.265625 -1.140625q0 -0.765625 -0.390625 -1.328125q-0.390625 -0.5625 -1.078125 -0.78125q-0.6875 -0.234375 -1.984375 -0.234375l-3.15625 0l0 4.671875zm15.908142 1.609375l0 -13.59375l5.125 0q1.359375 0 2.078125 0.125q1.0 0.171875 1.671875 0.640625q0.671875 0.46875 1.078125 1.3125q0.421875 0.84375 0.421875 1.84375q0 1.734375 -1.109375 2.9375q-1.09375 1.203125 -3.984375 1.203125l-3.484375 0l0 5.53125l-1.796875 0zm1.796875 -7.140625l3.515625 0q1.75 0 2.46875 -0.640625q0.734375 -0.65625 0.734375 -1.828125q0 -0.859375 -0.4375 -1.46875q-0.421875 -0.609375 -1.125 -0.796875q-0.453125 -0.125 -1.671875 -0.125l-3.484375 0l0 4.859375zm10.4122925 7.140625l0 -9.859375l1.5 0l0 1.5q0.578125 -1.046875 1.0625 -1.375q0.484375 -0.34375 1.078125 -0.34375q0.84375 0 1.71875 0.546875l-0.578125 1.546875q-0.609375 -0.359375 -1.234375 -0.359375q-0.546875 0 -0.984375 0.328125q-0.421875 0.328125 -0.609375 0.90625q-0.28125 0.890625 -0.28125 1.953125l0 5.15625l-1.671875 0zm6.2439575 -11.6875l0 -1.90625l1.671875 0l0 1.90625l-1.671875 0zm0 11.6875l0 -9.859375l1.671875 0l0 9.859375l-1.671875 0zm4.1292114 0l0 -9.859375l1.5 0l0 1.390625q0.453125 -0.71875 1.21875 -1.15625q0.78125 -0.453125 1.765625 -0.453125q1.09375 0 1.796875 0.453125q0.703125 0.453125 0.984375 1.28125q1.171875 -1.734375 3.046875 -1.734375q1.46875 0 2.25 0.8125q0.796875 0.8125 0.796875 2.5l0 6.765625l-1.671875 0l0 -6.203125q0 -1.0 -0.15625 -1.4375q-0.15625 -0.453125 -0.59375 -0.71875q-0.421875 -0.265625 -1.0 -0.265625q-1.03125 0 -1.71875 0.6875q-0.6875 0.6875 -0.6875 2.21875l0 5.71875l-1.671875 0l0 -6.40625q0 -1.109375 -0.40625 -1.65625q-0.40625 -0.5625 -1.34375 -0.5625q-0.703125 0 -1.3125 0.375q-0.59375 0.359375 -0.859375 1.078125q-0.265625 0.71875 -0.265625 2.0625l0 5.109375l-1.671875 0zm21.978271 -1.21875q-0.9375 0.796875 -1.796875 1.125q-0.859375 0.3125 -1.84375 0.3125q-1.609375 0 -2.484375 -0.78125q-0.875 -0.796875 -0.875 -2.03125q0 -0.734375 0.328125 -1.328125q0.328125 -0.59375 0.859375 -0.953125q0.53125 -0.359375 1.203125 -0.546875q0.5 -0.140625 1.484375 -0.25q2.03125 -0.25 2.984375 -0.578125q0 -0.34375 0 -0.4375q0 -1.015625 -0.46875 -1.4375q-0.640625 -0.5625 -1.90625 -0.5625q-1.171875 0 -1.734375 0.40625q-0.5625 0.40625 -0.828125 1.46875l-1.640625 -0.234375q0.234375 -1.046875 0.734375 -1.6875q0.515625 -0.640625 1.46875 -0.984375q0.96875 -0.359375 2.25 -0.359375q1.265625 0 2.046875 0.296875q0.78125 0.296875 1.15625 0.75q0.375 0.453125 0.515625 1.140625q0.09375 0.421875 0.09375 1.53125l0 2.234375q0 2.328125 0.09375 2.953125q0.109375 0.609375 0.4375 1.171875l-1.75 0q-0.265625 -0.515625 -0.328125 -1.21875zm-0.140625 -3.71875q-0.90625 0.359375 -2.734375 0.625q-1.03125 0.140625 -1.453125 0.328125q-0.421875 0.1875 -0.65625 0.546875q-0.234375 0.359375 -0.234375 0.796875q0 0.671875 0.5 1.125q0.515625 0.4375 1.484375 0.4375q0.96875 0 1.71875 -0.421875q0.75 -0.4375 1.109375 -1.15625q0.265625 -0.578125 0.265625 -1.671875l0 -0.609375zm4.0632324 4.9375l0 -9.859375l1.5 0l0 1.5q0.578125 -1.046875 1.0625 -1.375q0.484375 -0.34375 1.078125 -0.34375q0.84375 0 1.71875 0.546875l-0.578125 1.546875q-0.609375 -0.359375 -1.234375 -0.359375q-0.546875 0 -0.984375 0.328125q-0.421875 0.328125 -0.609375 0.90625q-0.28125 0.890625 -0.28125 1.953125l0 5.15625l-1.671875 0zm6.1501465 3.796875l-0.171875 -1.5625q0.546875 0.140625 0.953125 0.140625q0.546875 0 0.875 -0.1875q0.34375 -0.1875 0.5625 -0.515625q0.15625 -0.25 0.5 -1.25q0.046875 -0.140625 0.15625 -0.40625l-3.734375 -9.875l1.796875 0l2.046875 5.71875q0.40625 1.078125 0.71875 2.28125q0.28125 -1.15625 0.6875 -2.25l2.09375 -5.75l1.671875 0l-3.75 10.03125q-0.59375 1.625 -0.9375 2.234375q-0.4375 0.828125 -1.015625 1.203125q-0.578125 0.390625 -1.375 0.390625q-0.484375 0 -1.078125 -0.203125z" fill-rule="nonzero"></path><path fill="#cfe2f3" d="m596.2572 140.0643l0 0c0 2.9592896 9.595947 5.3582764 21.433105 5.3582764c11.837158 0 21.433044 -2.3989868 21.433044 -5.3582764l0 46.291336c0 2.9592896 -9.595886 5.3582764 -21.433044 5.3582764c-11.837158 0 -21.433105 -2.3989868 -21.433105 -5.3582764z" fill-rule="nonzero"></path><path fill="#e2edf7" d="m596.2572 140.0643l0 0c0 -2.9592896 9.595947 -5.358261 21.433105 -5.358261c11.837158 0 21.433044 2.3989716 21.433044 5.358261l0 0c0 2.9592896 -9.595886 5.3582764 -21.433044 5.3582764c-11.837158 0 -21.433105 -2.3989868 -21.433105 -5.3582764z" fill-rule="nonzero"></path><path fill="#000000" fill-opacity="0.0" d="m639.12335 140.0643l0 0c0 2.9592896 -9.595886 5.3582764 -21.433044 5.3582764c-11.837158 0 -21.433105 -2.3989868 -21.433105 -5.3582764l0 0c0 -2.9592896 9.595947 -5.358261 21.433105 -5.358261c11.837158 0 21.433044 2.3989716 21.433044 5.358261l0 46.291336c0 2.9592896 -9.595886 5.3582764 -21.433044 5.3582764c-11.837158 0 -21.433105 -2.3989868 -21.433105 -5.3582764l0 -46.291336" fill-rule="nonzero"></path><path stroke="#000000" stroke-width="1.0" stroke-linejoin="round" stroke-linecap="butt" d="m639.12335 140.0643l0 0c0 2.9592896 -9.595886 5.3582764 -21.433044 5.3582764c-11.837158 0 -21.433105 -2.3989868 -21.433105 -5.3582764l0 0c0 -2.9592896 9.595947 -5.358261 21.433105 -5.358261c11.837158 0 21.433044 2.3989716 21.433044 5.358261l0 46.291336c0 2.9592896 -9.595886 5.3582764 -21.433044 5.3582764c-11.837158 0 -21.433105 -2.3989868 -21.433105 -5.3582764l0 -46.291336" fill-rule="nonzero"></path><path fill="#000000" fill-opacity="0.0" d="m541.59845 43.209976l54.64563 0" fill-rule="nonzero"></path><path stroke="#000000" stroke-width="1.0" stroke-linejoin="round" stroke-linecap="butt" d="m541.59845 43.209972l48.64563 0" fill-rule="evenodd"></path><path fill="#000000" stroke="#000000" stroke-width="1.0" stroke-linecap="butt" d="m590.2441 44.861706l4.538086 -1.6517334l-4.538086 -1.6517296z" fill-rule="evenodd"></path><path fill="#000000" fill-opacity="0.0" d="m541.59845 163.20998l54.64563 0" fill-rule="nonzero"></path><path stroke="#000000" stroke-width="1.0" stroke-linejoin="round" stroke-linecap="butt" d="m541.59845 163.20998l48.64563 0" fill-rule="evenodd"></path><path fill="#000000" stroke="#000000" stroke-width="1.0" stroke-linecap="butt" d="m590.2441 164.86171l4.538086 -1.6517334l-4.538086 -1.6517334z" fill-rule="evenodd"></path><path fill="#000000" fill-opacity="0.0" d="m617.6903 71.713905l0 62.992134" fill-rule="nonzero"></path><path stroke="#000000" stroke-width="1.0" stroke-linejoin="round" stroke-linecap="butt" d="m617.6903 71.71391l0 56.992126" fill-rule="evenodd"></path><path fill="#000000" stroke="#000000" stroke-width="1.0" stroke-linecap="butt" d="m616.0386 128.70604l1.6517334 4.538101l1.6517334 -4.538101z" fill-rule="evenodd"></path></g></svg>

